<svg xmlns="http://www.w3.org/2000/svg" xmlns:xlink="http://www.w3.org/1999/xlink" width="350" zoomAndPan="magnify" viewBox="0 0 262.5 496.499993" height="662" preserveAspectRatio="xMidYMid meet" version="1.0"><defs><clipPath id="02127d9360"><path d="M 0 0.222656 L 262 0.222656 L 262 495.777344 L 0 495.777344 Z M 0 0.222656 " clip-rule="nonzero"/></clipPath><clipPath id="892289017e"><path d="M 2 6 L 260 6 L 260 495.777344 L 2 495.777344 Z M 2 6 " clip-rule="nonzero"/></clipPath></defs><g clip-path="url(#02127d9360)"><path fill="#138bcd" d="M 259.371094 462.253906 C 259.371094 483.621094 242.015625 501.007812 220.679688 501.007812 L 41.394531 501.007812 C 20.058594 501.007812 2.699219 483.621094 2.699219 462.253906 L 2.699219 45.25 C 2.699219 23.882812 20.058594 6.496094 41.394531 6.496094 L 220.679688 6.496094 C 242.015625 6.496094 259.371094 23.882812 259.371094 45.25 Z M 220.679688 0.234375 L 41.394531 0.234375 C 16.609375 0.234375 -3.550781 20.429688 -3.550781 45.25 L -3.550781 462.253906 C -3.550781 487.074219 16.609375 507.269531 41.394531 507.269531 L 220.679688 507.269531 C 245.464844 507.269531 265.625 487.074219 265.625 462.253906 L 265.625 45.25 C 265.625 20.429688 245.464844 0.234375 220.679688 0.234375 " fill-opacity="1" fill-rule="nonzero"/></g><g clip-path="url(#892289017e)"><path fill="#ffffff" d="M 250.417969 146.355469 L 250.417969 463.773438 C 250.417969 465.0625 250.328125 466.332031 250.167969 467.570312 C 248.316406 482 236.007812 493.144531 221.089844 493.144531 L 40.972656 493.144531 C 26.066406 493.144531 13.753906 482 11.894531 467.570312 C 11.734375 466.332031 11.65625 465.0625 11.65625 463.773438 L 11.65625 43.726562 C 11.65625 27.507812 24.78125 14.347656 40.972656 14.347656 L 75.753906 14.347656 C 77.03125 14.347656 78.066406 15.394531 78.066406 16.675781 C 78.066406 23.992188 83.996094 29.925781 91.304688 29.925781 L 170.769531 29.925781 C 178.078125 29.925781 183.996094 23.992188 183.996094 16.675781 C 183.996094 15.394531 185.03125 14.347656 186.308594 14.347656 L 221.089844 14.347656 C 237.242188 14.347656 250.335938 27.425781 250.40625 43.585938 C 250.417969 43.636719 250.417969 43.679688 250.417969 43.726562 Z M 220.679688 6.496094 L 41.382812 6.496094 C 20.058594 6.496094 2.699219 23.882812 2.699219 45.25 L 2.699219 462.253906 C 2.699219 483.621094 20.058594 501.007812 41.382812 501.007812 L 220.679688 501.007812 C 242.015625 501.007812 259.363281 483.621094 259.363281 462.253906 L 259.363281 45.25 C 259.363281 23.882812 242.015625 6.496094 220.679688 6.496094 " fill-opacity="1" fill-rule="nonzero"/></g></svg>